<svg xmlns="http://www.w3.org/2000/svg" version="1.1" xmlns:xlink="http://www.w3.org/1999/xlink" xmlns:svgjs="http://svgjs.dev/svgjs" width="100" height="100"><svg width="100" height="100" viewBox="0 0 24 24" fill="none" stroke="currentColor" stroke-width="2" stroke-linecap="round" stroke-linejoin="round"><path d="M7 15.5h1c1 0 2.5-.5 3.5-1 1 .5 2.5 1 3.5 1h1" stroke-width="1"></path><g transform="translate(4)scale(.6)"><path d="M12 8V4H8"></path><rect width="16" height="12" x="4" y="8" rx="2"></rect><path d="M2 14h2m16 0h2m-7-1v2m-6-2v2"></path></g><path d="m13.5 20 1.5-4 1.5 4a2.5 2.5 0 0 1-3 0m-7 0L8 16l1.5 4a2.5 2.5 0 0 1-3 0M9 22.5h5" stroke-width="1"></path></svg><style>@media (prefers-color-scheme: light) { :root { filter: none; } }
@media (prefers-color-scheme: dark) { :root { filter: none; } }
</style></svg>