<svg width="100" height="100" viewBox="0 0 24 24" fill="none" stroke="currentColor" stroke-width="2" stroke-linecap="round" stroke-linejoin="round">
  <path d="M7 15.5h1c1 0 2.5-.5 3.5-1 1 .5 2.5 1 3.5 1h1" stroke-width="1"/>
  <g transform="translate(3)scale(.7)">
    <path d="M12 8V4H8"/>
    <rect width="16" height="12" x="4" y="8" rx="4"/>
    <path d="M2 14h2m16 0h2m-7-1v2m-6-2v2"/>
  </g>
  <path d="m13.5 20 1.5-4 1.5 4a2.5 2.5 0 0 1-3 0m-7 0L8 16l1.5 4a2.5 2.5 0 0 1-3 0M9 22.5h5" stroke-width="1"/>
</svg>
